<svg xmlns="http://www.w3.org/2000/svg" width="24" height="24" viewBox="0 0 24 24" fill="none" stroke="currentColor" stroke-width="1.75" stroke-linecap="round" stroke-linejoin="round">
  <!-- Card shape -->
  <rect x="2" y="4" width="20" height="16" rx="2"/>
  <!-- Magnetic stripe / chip -->
  <rect x="6" y="9" width="4" height="5" rx="0.5"/>
  <!-- Contactless icon -->
  <path d="M13 10c.6-.4 1.4-.6 2.2-.6 2.2 0 4 1.3 4 3s-1.8 3-4 3c-.8 0-1.6-.2-2.2-.6"/>
  <path d="M13 11.5c.3-.2.8-.4 1.2-.4 1.1 0 2 .7 2 1.5s-.9 1.5-2 1.5c-.4 0-.9-.1-1.2-.4"/>
</svg>
